<!DOCTYPE svg PUBLIC "-//W3C//DTD SVG 1.1//EN" "http://www.w3.org/Graphics/SVG/1.1/DTD/svg11.dtd">
<!-- Uploaded to: SVG Find, www.svgrepo.com, Transformed by: SVG Find Mixer Tools -->
<svg fill="#6e9277" width="256px" height="256px" version="1.1" viewBox="144 144 512 512" xmlns="http://www.w3.org/2000/svg" stroke="#6e9277">
<g id="SVGRepo_bgCarrier" stroke-width="0"/>
<g id="SVGRepo_tracerCarrier" stroke-linecap="round" stroke-linejoin="round"/>
<g id="SVGRepo_iconCarrier"> <g> <path d="m506.7 647.2h-212.72c-22.617 0-41.09-18.473-41.09-41.09v-410.55c0-22.617 18.473-41.09 41.09-41.09h212.83c22.617 0 41.09 18.473 41.09 41.09v410.44c-0.11719 22.727-18.59 41.199-41.203 41.199zm-212.83-481.53c-16.457 0-29.895 13.434-29.895 29.895v410.55c0 16.457 13.434 29.895 29.895 29.895h212.83c16.457 0 29.895-13.434 29.895-29.895l-0.003906-410.55c0-16.457-13.434-29.895-29.895-29.895z"/> <path d="m542.18 229.71h-283.81c-3.1367 0-5.5977-2.4648-5.5977-5.5977 0-3.1367 2.4648-5.5977 5.5977-5.5977h283.81c3.1367 0 5.5977 2.4648 5.5977 5.5977 0 3.1328-2.4609 5.5977-5.5977 5.5977z"/> <path d="m542.18 583.16h-283.81c-3.1367 0-5.5977-2.4648-5.5977-5.5977 0-3.1367 2.4648-5.5977 5.5977-5.5977h283.81c3.1367 0 5.5977 2.4648 5.5977 5.5977 0 3.1367-2.4609 5.5977-5.5977 5.5977z"/> <path d="m456.31 197.69h-111.96c-3.1367 0-5.5977-2.4648-5.5977-5.5977 0-3.1367 2.4648-5.5977 5.5977-5.5977h111.96c3.1367 0 5.5977 2.4648 5.5977 5.5977s-2.5742 5.5977-5.5977 5.5977z"/> <path d="m428.44 615.18h-56.316c-3.1367 0-5.5977-2.4648-5.5977-5.5977 0-3.1367 2.4648-5.5977 5.5977-5.5977h56.316c3.1367 0 5.5977 2.4648 5.5977 5.5977 0 3.1367-2.4648 5.5977-5.5977 5.5977z"/> <path d="m450.38 467.06h-100.31c-20.711 0-37.504-16.793-37.504-37.504v-100.31c0-20.711 16.793-37.504 37.504-37.504l100.31-0.007813c20.711 0 37.504 16.793 37.504 37.504v100.31c0.003907 20.715-16.793 37.512-37.504 37.512zm-100.2-164.02c-14.555 0-26.309 11.754-26.309 26.309v100.31c0 14.555 11.754 26.309 26.309 26.309l100.2 0.003906c14.555 0 26.309-11.754 26.309-26.309v-100.31c0-14.555-11.754-26.309-26.309-26.309z"/> <path d="m400.34 344.58c-3.1367 0-5.5977-2.4648-5.5977-5.5977v-14.441c0-3.1367 2.4648-5.5977 5.5977-5.5977 3.1367 0 5.5977 2.4648 5.5977 5.5977v14.441c0 3.1367-2.5781 5.5977-5.5977 5.5977z"/> <path d="m400.34 439.86c-3.1367 0-5.5977-2.4648-5.5977-5.5977v-14.441c0-3.1367 2.4648-5.5977 5.5977-5.5977 3.1367 0 5.5977 2.4648 5.5977 5.5977v14.441c0 3.1328-2.5781 5.5977-5.5977 5.5977z"/> <path d="m398.21 425.52h-1.457c-10.637-0.55859-23.062-7.7266-22.84-26.309 0-3.0234 2.5742-5.4844 5.5977-5.4844h0.11328c3.1367 0 5.5977 2.5742 5.4844 5.7109-0.11328 12.539 7.6133 14.777 12.203 15.004 7.5 0.33594 16.684-4.3672 17.242-11.082v-0.22266c1.457-11.309-13.098-17.465-17.578-19.145-18.023-6.4922-25.414-16.348-22.055-29.109 4.3672-16.906 18.586-22.84 29.895-21.16 10.859 1.5664 22.281 10.523 21.719 26.535-0.11328 3.1367-2.6875 5.4844-5.8203 5.375-3.1367-0.11328-5.4844-2.6875-5.375-5.8203 0.33594-9.7422-6.2695-14.219-12.09-15.113-6.2695-0.89453-14.555 1.9023-17.465 12.875-1.2305 4.5898-0.33594 10.188 15.113 15.785 6.4922 2.3516 27.316 11.531 24.855 31.012-1.2344 12.977-14.891 21.148-27.543 21.148z"/> <path d="m482.29 509.83h-164.02c-3.1367 0-5.5977-2.4648-5.5977-5.5977 0-3.1367 2.4648-5.5977 5.5977-5.5977h164.02c3.1367 0 5.5977 2.4648 5.5977 5.5977 0 3.1367-2.4648 5.5977-5.5977 5.5977z"/> <path d="m322.3 615.18h-20.602c-3.1367 0-5.5977-2.4648-5.5977-5.5977 0-3.1367 2.4648-5.5977 5.5977-5.5977h20.602c3.1367 0 5.5977 2.4648 5.5977 5.5977 0 3.1367-2.4648 5.5977-5.5977 5.5977z"/> <path d="m498.97 615.18h-20.602c-3.1367 0-5.5977-2.4648-5.5977-5.5977 0-3.1367 2.4648-5.5977 5.5977-5.5977h20.602c3.1367 0 5.5977 2.4648 5.5977 5.5977 0 3.1367-2.5742 5.5977-5.5977 5.5977z"/> </g> </g>
</svg>